<svg width="16" height="16" viewBox="0 0 16 16" fill="none" xmlns="http://www.w3.org/2000/svg">
<path d="M0 0H13C14.6569 0 16 1.34315 16 3V16H3C1.34315 16 0 14.6569 0 13V0Z" fill="black"/>
<path d="M4.46591 11V10.3438L7.44886 6.06534H4.44886V5.18182H8.75568V5.83807L5.77557 10.1165H8.77273V11H4.46591Z" fill="white"/>
<path d="M11.4247 6.57227C11.4032 6.37068 11.3124 6.21372 11.1524 6.10138C10.9939 5.98905 10.7877 5.93288 10.5338 5.93288C10.3553 5.93288 10.2021 5.95981 10.0744 6.01367C9.9467 6.06753 9.84898 6.14062 9.78127 6.23295C9.71356 6.32528 9.67894 6.43069 9.6774 6.54918C9.6774 6.64767 9.69971 6.73307 9.74434 6.8054C9.79051 6.87772 9.85283 6.93928 9.93131 6.99006C10.0098 7.0393 10.0967 7.08085 10.1921 7.1147C10.2875 7.14856 10.3837 7.17702 10.4807 7.20011L10.9239 7.3109C11.1024 7.35245 11.2739 7.40862 11.4386 7.4794C11.6048 7.55019 11.7533 7.63944 11.8841 7.74716C12.0164 7.85488 12.1211 7.98491 12.198 8.13725C12.2749 8.2896 12.3134 8.4681 12.3134 8.67276C12.3134 8.94975 12.2426 9.19366 12.1011 9.40447C11.9595 9.61375 11.7548 9.77764 11.4871 9.89613C11.2208 10.0131 10.8985 10.0716 10.5199 10.0716C10.1521 10.0716 9.83282 10.0146 9.56199 9.90075C9.2927 9.78687 9.08188 9.62068 8.92953 9.40217C8.77873 9.18365 8.69717 8.91744 8.68486 8.60352H9.52737C9.53968 8.76817 9.59046 8.90513 9.67971 9.01438C9.76896 9.12364 9.88514 9.2052 10.0283 9.25906C10.1729 9.31291 10.3345 9.33984 10.513 9.33984C10.6992 9.33984 10.8623 9.31214 11.0023 9.25675C11.1439 9.19981 11.2547 9.12133 11.3347 9.02131C11.4147 8.91974 11.4555 8.80125 11.4571 8.66584C11.4555 8.54273 11.4194 8.44117 11.3486 8.36115C11.2778 8.27959 11.1785 8.21188 11.0508 8.15803C10.9246 8.10263 10.7769 8.05339 10.6076 8.0103L10.0698 7.8718C9.68048 7.77178 9.37271 7.62021 9.14651 7.41708C8.92184 7.21242 8.8095 6.94081 8.8095 6.60227C8.8095 6.32375 8.88491 6.07984 9.03571 5.87056C9.18805 5.66128 9.39503 5.49893 9.65663 5.38352C9.91823 5.26657 10.2145 5.2081 10.5453 5.2081C10.8808 5.2081 11.1747 5.26657 11.427 5.38352C11.681 5.49893 11.8802 5.65974 12.0249 5.86594C12.1695 6.07061 12.2442 6.30605 12.2488 6.57227H11.4247Z" fill="white"/>
</svg>
